HIERARCHY
ROOT Hips
{
	OFFSET 0.000000 103.266502 0.000000
	CHANNELS 6 Xposition Yposition Zposition Xrotation Yrotation Zrotation 
	JOINT Spine
	{
		OFFSET -0.002400 12.777504 0.315300
		CHANNELS 3 Xrotation Yrotation Zrotation
		JOINT Spine1
		{
			OFFSET -0.002067 5.816869 0.032633
			CHANNELS 3 Xrotation Yrotation Zrotation
			JOINT Spine1_split
			{
				OFFSET -0.002067 5.816869 0.032633
				CHANNELS 3 Xrotation Yrotation Zrotation
				JOINT Spine2
				{
					OFFSET -0.002067 5.816869 0.032633
					CHANNELS 3 Xrotation Yrotation Zrotation
					JOINT Neck
					{
						OFFSET -0.003700 21.199493 -0.826900
						CHANNELS 3 Xrotation Yrotation Zrotation
						JOINT Head
						{
							OFFSET 0.000000 20.442200 4.834800
							CHANNELS 3 Xrotation Yrotation Zrotation
							JOINT HeadTop_End
							{
								OFFSET 0.000000 34.668396 4.968400
								CHANNELS 3 Xrotation Yrotation Zrotation
								End Site
								{
									OFFSET 0.000000 0.000000 0.000000
								}
							}
						}
					}
					JOINT LeftShoulder
					{
						OFFSET 3.288150 8.794197 -1.372250
						CHANNELS 3 Xrotation Yrotation Zrotation
						JOINT LeftShoulder_split
						{
							OFFSET 3.288150 8.794197 -1.372250
							CHANNELS 3 Xrotation Yrotation Zrotation
							JOINT LeftArm
							{
								OFFSET 11.953299 -2.279007 -0.146200
								CHANNELS 3 Xrotation Yrotation Zrotation
								JOINT LeftForeArm
								{
									OFFSET 18.448900 0.000000 0.000000
									CHANNELS 3 Xrotation Yrotation Zrotation
									JOINT LeftHand
									{
										OFFSET 29.527798 0.000000 0.000000
										CHANNELS 3 Xrotation Yrotation Zrotation
										JOINT LeftHandThumb1
										{
											OFFSET 10.739754 -2.369614 9.225399
											CHANNELS 3 Xrotation Yrotation Zrotation
											JOINT LeftHandThumb2
											{
												OFFSET 4.926170 -2.844131 2.844125
												CHANNELS 3 Xrotation Yrotation Zrotation
												JOINT LeftHandThumb3
												{
													OFFSET 4.614891 -2.664413 2.664409
													CHANNELS 3 Xrotation Yrotation Zrotation
													JOINT LeftHandThumb4
													{
														OFFSET 4.432465 -2.559082 2.559083
														CHANNELS 3 Xrotation Yrotation Zrotation
														End Site
														{
															OFFSET 0.000000 0.000000 0.000000
														}
													}
												}
											}
										}
										JOINT LeftHandIndex1
										{
											OFFSET 26.467674 0.187653 6.405298
											CHANNELS 3 Xrotation Yrotation Zrotation
											JOINT LeftHandIndex2
											{
												OFFSET 8.792900 0.000000 0.000000
												CHANNELS 3 Xrotation Yrotation Zrotation
												JOINT LeftHandIndex3
												{
													OFFSET 10.075203 0.000000 0.000000
													CHANNELS 3 Xrotation Yrotation Zrotation
													End Site
													{
														OFFSET 0.000000 0.000000 0.000000
													}
												}
											}
										}
										JOINT LeftHandMiddle1
										{
											OFFSET 25.764404 0.000000 0.000000
											CHANNELS 3 Xrotation Yrotation Zrotation
											JOINT LeftHandMiddle2
											{
												OFFSET 9.393974 0.000000 0.000000
												CHANNELS 3 Xrotation Yrotation Zrotation
												JOINT LeftHandMiddle3
												{
													OFFSET 10.771950 0.000000 0.000000
													CHANNELS 3 Xrotation Yrotation Zrotation
													End Site
													{
														OFFSET 0.000000 0.000000 0.000000
													}
												}
											}
										}
										JOINT LeftHandRing1
										{
											OFFSET 24.660927 0.144547 -6.225808
											CHANNELS 3 Xrotation Yrotation Zrotation
											JOINT LeftHandRing2
											{
												OFFSET 9.393799 0.000000 0.000000
												CHANNELS 3 Xrotation Yrotation Zrotation
												JOINT LeftHandRing3
												{
													OFFSET 9.928497 0.000000 0.000000
													CHANNELS 3 Xrotation Yrotation Zrotation
													End Site
													{
														OFFSET 0.000000 0.000000 0.000000
													}
												}
											}
										}
										JOINT LeftHandPinky1
										{
											OFFSET 23.655350 0.125290 -12.815412
											CHANNELS 3 Xrotation Yrotation Zrotation
											JOINT LeftHandPinky2
											{
												OFFSET 8.425102 0.000000 0.000000
												CHANNELS 3 Xrotation Yrotation Zrotation
												JOINT LeftHandPinky3
												{
													OFFSET 8.147003 0.000000 0.000000
													CHANNELS 3 Xrotation Yrotation Zrotation
													End Site
													{
														OFFSET 0.000000 0.000000 0.000000
													}
												}
											}
										}
									}
								}
							}
						}
					}
					JOINT RightShoulder
					{
						OFFSET -3.249400 8.794197 -1.372250
						CHANNELS 3 Xrotation Yrotation Zrotation
						JOINT RightShoulder_split
						{
							OFFSET -3.249400 8.794197 -1.372250
							CHANNELS 3 Xrotation Yrotation Zrotation
							JOINT RightArm
							{
								OFFSET -11.953299 -2.279007 -0.146200
								CHANNELS 3 Xrotation Yrotation Zrotation
								JOINT RightForeArm
								{
									OFFSET -18.448900 0.000000 0.000000
									CHANNELS 3 Xrotation Yrotation Zrotation
									JOINT RightHand
									{
										OFFSET -29.527802 0.000000 0.000000
										CHANNELS 3 Xrotation Yrotation Zrotation
										JOINT RightHandThumb1
										{
											OFFSET -10.739754 -2.369614 9.225399
											CHANNELS 3 Xrotation Yrotation Zrotation
											JOINT RightHandThumb2
											{
												OFFSET -4.926170 -2.844131 2.844125
												CHANNELS 3 Xrotation Yrotation Zrotation
												JOINT RightHandThumb3
												{
													OFFSET -4.614891 -2.664413 2.664409
													CHANNELS 3 Xrotation Yrotation Zrotation
													JOINT RightHandThumb4
													{
														OFFSET -4.432465 -2.559082 2.559083
														CHANNELS 3 Xrotation Yrotation Zrotation
														End Site
														{
															OFFSET 0.000000 0.000000 0.000000
														}
													}
												}
											}
										}
										JOINT RightHandIndex1
										{
											OFFSET -26.467674 0.187653 6.405298
											CHANNELS 3 Xrotation Yrotation Zrotation
											JOINT RightHandIndex2
											{
												OFFSET -8.792900 0.000000 0.000000
												CHANNELS 3 Xrotation Yrotation Zrotation
												JOINT RightHandIndex3
												{
													OFFSET -10.075203 0.000000 0.000000
													CHANNELS 3 Xrotation Yrotation Zrotation
													End Site
													{
														OFFSET 0.000000 0.000000 0.000000
													}
												}
											}
										}
										JOINT RightHandMiddle1
										{
											OFFSET -25.764404 0.000000 0.000000
											CHANNELS 3 Xrotation Yrotation Zrotation
											JOINT RightHandMiddle2
											{
												OFFSET -9.393974 0.000000 0.000000
												CHANNELS 3 Xrotation Yrotation Zrotation
												JOINT RightHandMiddle3
												{
													OFFSET -10.771950 0.000000 0.000000
													CHANNELS 3 Xrotation Yrotation Zrotation
													End Site
													{
														OFFSET 0.000000 0.000000 0.000000
													}
												}
											}
										}
										JOINT RightHandRing1
										{
											OFFSET -24.660927 0.144547 -6.225808
											CHANNELS 3 Xrotation Yrotation Zrotation
											JOINT RightHandRing2
											{
												OFFSET -9.393799 0.000000 0.000000
												CHANNELS 3 Xrotation Yrotation Zrotation
												JOINT RightHandRing3
												{
													OFFSET -9.928497 0.000000 0.000000
													CHANNELS 3 Xrotation Yrotation Zrotation
													End Site
													{
														OFFSET 0.000000 0.000000 0.000000
													}
												}
											}
										}
										JOINT RightHandPinky1
										{
											OFFSET -23.655350 0.125290 -12.815412
											CHANNELS 3 Xrotation Yrotation Zrotation
											JOINT RightHandPinky2
											{
												OFFSET -8.425102 0.000000 0.000000
												CHANNELS 3 Xrotation Yrotation Zrotation
												JOINT RightHandPinky3
												{
													OFFSET -8.147003 0.000000 0.000000
													CHANNELS 3 Xrotation Yrotation Zrotation
													End Site
													{
														OFFSET 0.000000 0.000000 0.000000
													}
												}
											}
										}
									}
								}
							}
						}
					}
				}
			}
		}
	}
	JOINT LeftUpLeg
	{
		OFFSET 11.394100 -6.187798 -0.413800
		CHANNELS 3 Xrotation Yrotation Zrotation
		JOINT LeftLeg
		{
			OFFSET 0.430247 -32.302673 3.732800
			CHANNELS 3 Xrotation Yrotation Zrotation
			JOINT LeftFoot
			{
				OFFSET -0.430247 -48.264931 -6.423300
				CHANNELS 3 Xrotation Yrotation Zrotation
				JOINT LeftToeBase
				{
					OFFSET 4.230900 -16.068199 23.438400
					CHANNELS 3 Xrotation Yrotation Zrotation
					JOINT LeftToe_End
					{
						OFFSET 4.510700 0.695400 19.974600
						CHANNELS 3 Xrotation Yrotation Zrotation
						End Site
						{
							OFFSET 0.000000 0.000000 0.000000
						}
					}
				}
			}
		}
	}
	JOINT RightUpLeg
	{
		OFFSET -11.333700 -6.187798 -0.413800
		CHANNELS 3 Xrotation Yrotation Zrotation
		JOINT RightLeg
		{
			OFFSET -0.430392 -32.302628 3.733000
			CHANNELS 3 Xrotation Yrotation Zrotation
			JOINT RightFoot
			{
				OFFSET 0.430392 -48.264973 -6.423500
				CHANNELS 3 Xrotation Yrotation Zrotation
				JOINT RightToeBase
				{
					OFFSET -4.230900 -16.068199 23.438400
					CHANNELS 3 Xrotation Yrotation Zrotation
					JOINT RightToe_End
					{
						OFFSET -4.510700 0.695400 19.974600
						CHANNELS 3 Xrotation Yrotation Zrotation
						End Site
						{
							OFFSET 0.000000 0.000000 0.000000
						}
					}
				}
			}
		}
	}
}
MOTION
Frames: 6
Frame Time: 0.016667
0.382286 86.889511 0.137197 10.640313 67.366743 -12.444661 1.872422 -2.049174 0.652341 2.147805 -0.574859 -0.033124 0.000000 0.000000 0.000000 2.136798 -0.620503 -0.146677 -4.452904 -10.379971 0.183234 -3.546768 -51.462340 5.883612 -0.000000 0.000000 -0.000000 1.127386 -10.640391 -5.486605 0.000000 0.000000 0.000000 -1.802094 -47.065450 -47.163173 0.000051 -106.321860 0.000068 -14.181006 -27.377403 4.759021 -9.674872 0.269247 1.575506 18.503635 20.929663 -3.451892 -18.184755 -25.645180 1.164905 0.000000 0.000002 -0.000000 -3.846435 2.878472 -61.548071 2.994986 5.108763 -60.739916 0.000001 0.000004 0.000000 -2.841116 4.594540 -63.952120 4.026900 5.560375 -71.804850 -0.000000 0.000001 -0.000001 -4.005786 6.210692 -77.776853 4.605486 5.717409 -77.688067 -0.000001 0.000001 -0.000001 -0.923504 7.377195 -82.600859 4.957400 5.782643 -81.199556 0.000001 0.000001 0.000000 0.469307 -2.168342 7.105748 0.000000 0.000000 0.000000 -29.988372 -15.739987 41.708403 0.000107 109.347169 -0.000110 14.603148 20.324232 -39.470062 -6.752287 7.209115 -18.581253 15.979738 -27.517683 14.723405 -5.137985 21.103500 -19.354707 0.000001 0.000001 0.000002 -4.026031 10.918939 28.366776 3.771260 -4.572316 79.022283 -0.000000 -0.000000 -0.000001 -4.881337 0.185794 47.726114 2.776643 -4.261381 66.161194 0.000000 0.000000 -0.000004 -3.940816 -1.274185 51.126394 3.609631 -4.538084 76.987331 0.000000 -0.000000 -0.000000 -2.235442 -3.308462 56.826959 2.160907 -3.932896 57.559316 0.000002 -0.000001 0.000004 -22.703018 -1.273367 19.756069 51.672922 -5.458967 10.183588 -30.510964 4.354958 -14.332442 -9.492822 0.000014 -0.000004 0.000000 -0.000000 0.000000 -38.624177 7.818464 -14.701145 46.722882 7.720211 -6.634962 -14.426416 2.031390 21.228149 -5.169437 -0.000006 0.000007 -0.000000 0.000000 0.000000 
0.675749 88.662376 -0.145024 9.137193 65.645460 -10.797190 1.934259 -2.330521 0.534312 2.196506 -0.669204 -0.093632 0.000000 0.000000 0.000000 2.178839 -0.721577 -0.214627 -4.181046 -10.086969 0.380456 -3.435689 -49.846130 5.967147 -0.000000 -0.000000 -0.000000 1.159399 -10.584906 -4.968930 0.000000 0.000000 0.000000 -3.440725 -46.440478 -48.700540 0.000095 -107.022255 0.000111 -13.940659 -26.498749 3.948684 -9.674871 0.269250 1.575506 18.506548 20.943346 -3.449982 -18.178397 -25.632317 1.172631 0.000000 -0.000000 0.000000 -3.845309 2.879127 -61.562544 2.996282 5.109477 -60.754437 0.000002 -0.000000 -0.000001 -2.840572 4.596735 -63.966361 4.028345 5.560850 -71.819610 -0.000000 -0.000002 -0.000002 -4.004832 6.213143 -77.791026 4.606969 5.717719 -77.702930 -0.000000 -0.000004 -0.000001 -0.922246 7.378906 -82.615263 4.958868 5.782878 -81.214214 0.000001 0.000001 -0.000002 0.472924 -1.987579 7.167155 0.000000 0.000000 0.000000 -29.704814 -14.959991 41.837808 0.000063 110.239615 -0.000069 15.232227 19.900567 -39.661430 -6.752287 7.209115 -18.581251 15.985335 -27.530483 14.722628 -5.136835 21.089409 -19.359384 -0.000000 -0.000001 0.000001 -4.025370 10.917531 28.381007 3.772415 -4.572537 79.036784 -0.000000 -0.000000 -0.000001 -4.881951 0.183414 47.740205 2.777740 -4.261866 66.176029 0.000001 -0.000000 -0.000001 -3.941068 -1.276340 51.140570 3.610794 -4.538346 77.002077 -0.000001 -0.000000 0.000003 -2.235185 -3.310198 56.841261 2.161899 -3.933535 57.573905 -0.000000 0.000001 0.000003 -20.824916 0.994490 19.219935 48.877810 -5.292384 10.434241 -27.830275 4.170662 -14.372707 -10.899832 0.000042 0.000008 0.000000 -0.000000 0.000001 -36.356025 6.748319 -15.181490 41.568381 7.840857 -6.662867 -11.469667 5.102074 22.341383 -4.656528 0.000017 -0.000002 0.000000 0.000000 0.000000 
1.005571 90.647186 -0.450811 7.907623 63.632686 -9.411613 1.879796 -2.591729 0.375666 2.147878 -0.743400 -0.181094 0.000000 0.000000 0.000000 2.123235 -0.800161 -0.306783 -3.798644 -9.756335 0.643417 -3.007116 -47.953136 6.067483 -0.000000 0.000000 0.000000 1.197097 -10.412339 -4.302577 0.000000 0.000000 0.000000 -5.193342 -45.854263 -50.234122 0.000063 -107.756015 0.000056 -13.352825 -25.456277 3.281910 -9.674871 0.269250 1.575505 18.511324 20.965588 -3.446837 -18.168127 -25.611399 1.185097 0.000000 -0.000001 -0.000000 -3.843475 2.880160 -61.586047 2.998386 5.110657 -60.778001 0.000002 -0.000000 -0.000002 -2.839657 4.600278 -63.989467 4.030647 5.561621 -71.843536 -0.000001 -0.000000 -0.000001 -4.003292 6.217133 -77.814030 4.609381 5.718231 -77.727116 -0.000001 -0.000001 -0.000001 -0.920197 7.381704 -82.638643 4.961300 5.783245 -81.238133 0.000000 -0.000003 -0.000000 0.488559 -1.683413 7.375540 0.000000 0.000000 0.000000 -29.457219 -13.864237 41.538215 0.000028 111.001646 -0.000023 15.563237 19.335504 -39.736108 -6.752287 7.209114 -18.581253 15.994447 -27.551298 14.721371 -5.134961 21.066484 -19.366966 -0.000000 0.000000 -0.000000 -4.024289 10.915250 28.404131 3.774295 -4.572904 79.060348 -0.000000 0.000000 0.000000 -4.882944 0.179542 47.763120 2.779536 -4.262658 66.200147 0.000002 -0.000001 0.000003 -3.941478 -1.279847 51.163629 3.612693 -4.538784 77.026038 -0.000001 -0.000000 0.000003 -2.234769 -3.313033 56.864545 2.163534 -3.934565 57.597653 -0.000000 0.000000 0.000002 -19.089872 3.190374 18.632268 46.088672 -4.824450 10.501772 -24.448360 3.891600 -14.339887 -12.947224 0.000029 0.000007 -0.000001 -0.000003 -0.000000 -33.803211 5.522685 -15.447979 35.601555 7.966770 -6.703247 -7.936347 8.179446 23.051139 -5.002594 -0.000004 -0.000003 0.000000 0.000001 -0.000000 
1.458378 93.312561 -0.836255 7.074620 60.852983 -8.447409 1.474607 -2.805165 0.155883 1.806340 -0.774960 -0.347969 0.000000 0.000000 0.000000 1.773440 -0.829135 -0.471257 -3.055413 -9.319766 1.116651 -1.591861 -45.242948 6.221002 -0.000000 -0.000000 -0.000000 1.239729 -9.854052 -3.184281 0.000000 0.000000 0.000000 -7.337283 -45.581448 -51.880317 0.000054 -108.518435 0.000064 -11.745963 -23.953245 2.992348 -9.674870 0.269249 1.575503 18.520717 21.009556 -3.440651 -18.147802 -25.570055 1.209764 0.000001 0.000001 0.000000 -3.839876 2.882216 -61.632465 3.002543 5.112961 -60.824597 -0.000002 0.000002 0.000000 -2.837878 4.607286 -64.035175 4.035225 5.563113 -71.890856 -0.000002 -0.000001 -0.000001 -4.000249 6.225052 -77.859485 4.614133 5.719270 -77.774900 -0.000000 0.000000 -0.000000 -0.916148 7.387179 -82.684863 4.966050 5.783968 -81.285350 0.000002 -0.000000 0.000001 0.528483 -1.104089 8.063767 0.000000 0.000000 0.000000 -29.166509 -11.793680 40.000286 -0.000008 111.367054 0.000007 15.073734 18.358087 -39.503297 -6.752287 7.209117 -18.581256 16.012444 -27.592448 14.718919 -5.131327 21.021195 -19.381860 -0.000000 -0.000001 -0.000000 -4.022163 10.910749 28.449836 3.778011 -4.573617 79.106964 0.000000 0.000000 -0.000001 -4.884901 0.171895 47.808374 2.783074 -4.264215 66.247760 -0.000000 0.000000 -0.000000 -3.942285 -1.286768 51.209173 3.616438 -4.539649 77.073398 0.000000 -0.000001 0.000002 -2.233943 -3.318616 56.910523 2.166754 -3.936600 57.644563 0.000001 -0.000000 0.000002 -17.613844 5.373523 18.139929 43.121259 -3.717999 9.972751 -19.225072 3.313785 -14.218055 -17.585908 0.000001 -0.000003 0.000000 -0.000001 -0.000000 -30.456722 3.898801 -14.881229 27.340349 7.929801 -7.224482 -2.916884 11.945326 23.029200 -8.997764 0.000015 0.000000 -0.000000 -0.000001 0.000000 
1.885113 95.991325 -1.180844 6.507632 57.646646 -7.522892 0.956558 -2.983481 -0.255961 1.369297 -0.750843 -0.544705 0.000000 0.000000 0.000000 1.328521 -0.799755 -0.660572 -2.260077 -8.831639 1.629505 -0.070823 -42.200751 6.263265 0.000000 0.000000 0.000000 1.264990 -9.251278 -1.937967 0.000000 0.000000 0.000000 -9.747280 -45.080983 -53.432877 0.000024 -109.456848 0.000008 -9.866277 -22.216655 2.761881 -9.674872 0.269252 1.575506 18.533635 21.070032 -3.432244 -18.119925 -25.513224 1.243573 0.000000 -0.000001 0.000000 -3.834920 2.885041 -61.696306 3.008245 5.116134 -60.888623 0.000001 -0.000001 0.000003 -2.835441 4.616961 -64.097992 4.041554 5.565151 -71.955927 -0.000001 -0.000001 -0.000003 -3.996054 6.235906 -77.921940 4.620672 5.720680 -77.840565 0.000000 0.000003 0.000001 -0.910581 7.394751 -82.748370 4.972586 5.784958 -81.350244 0.000001 0.000000 0.000001 0.565214 -0.209074 8.822584 0.000000 0.000000 0.000000 -28.956823 -9.525902 37.940526 0.000027 111.612838 -0.000030 14.183851 17.219399 -39.128132 -6.752287 7.209114 -18.581253 16.037247 -27.649026 14.715704 -5.126362 20.958931 -19.402261 -0.000000 0.000000 0.000001 -4.019236 10.904573 28.512678 3.783123 -4.574595 79.171018 0.000000 0.000000 -0.000000 -4.887591 0.161375 47.870576 2.787947 -4.266350 66.313262 -0.000000 -0.000000 -0.000000 -3.943387 -1.296294 51.271758 3.621590 -4.540823 77.138483 0.000000 0.000000 -0.000001 -2.232808 -3.326303 56.973705 2.171183 -3.939397 57.709074 -0.000000 -0.000000 0.000002 -17.068487 6.943172 17.466699 41.246706 -1.854899 9.315143 -12.713177 2.564234 -14.254805 -21.524496 -0.000009 -0.000002 0.000000 0.000001 0.000000 -28.598910 2.702139 -13.911850 20.737936 7.972852 -7.732899 4.133587 15.158326 21.891707 -11.707708 0.000002 -0.000004 -0.000000 0.000000 0.000000 
2.200878 98.157181 -1.380284 6.166895 54.103926 -6.265021 0.422527 -3.140643 -1.121346 0.914912 -0.628416 -0.788938 0.000000 0.000000 0.000000 0.866378 -0.672010 -0.890109 -1.581216 -8.317170 2.100082 1.021997 -39.087025 6.149674 -0.000000 0.000000 -0.000000 1.300961 -8.970249 -0.631255 0.000000 0.000000 0.000000 -12.531143 -43.686358 -54.856763 -0.000021 -110.912245 -0.000008 -8.001773 -19.995020 2.318284 -9.674872 0.269251 1.575509 18.549969 21.146402 -3.421688 -18.084908 -25.441440 1.286007 0.000001 0.000001 -0.000000 -3.826715 2.889616 -61.776752 3.015443 5.120134 -60.969451 0.000001 -0.000001 0.000002 -2.831510 4.629523 -64.177270 4.049510 5.567730 -72.038005 0.000005 0.000001 -0.000000 -3.990740 6.249619 -78.000856 4.628945 5.722441 -77.923429 0.000001 0.000001 0.000001 -0.903537 7.404277 -82.828543 4.980845 5.786212 -81.432165 -0.000001 -0.000001 -0.000000 0.594283 1.293009 9.366183 0.000000 0.000000 0.000000 -29.095236 -7.715560 35.699254 0.000034 111.974552 -0.000024 12.937930 15.963154 -38.652109 -6.752287 7.209113 -18.581256 16.068640 -27.720521 14.711819 -5.120159 20.880336 -19.427903 -0.000000 0.000000 0.000001 -4.015537 10.896826 28.591973 3.789572 -4.575821 79.251867 0.000000 0.000000 -0.000000 -4.890965 0.148103 47.949089 2.794095 -4.269035 66.395914 0.000000 -0.000000 0.000001 -3.944017 -1.308917 51.350725 3.628098 -4.542294 77.220657 0.000001 -0.000000 0.000002 -2.231359 -3.335991 57.053475 2.176777 -3.942920 57.790463 0.000001 0.000000 0.000001 -17.494297 7.511837 16.167490 40.983901 1.490698 8.776275 -5.749163 1.804070 -14.347282 -22.211338 -0.000027 -0.000001 0.000000 -0.000002 0.000000 -28.393330 2.073953 -14.100991 16.734064 8.427235 -6.209157 11.185221 15.151504 18.741527 -8.175712 -0.033599 1.802128 0.000000 -0.000000 0.000000 
